<svg id="SvgjsSvg1001" width="288" height="288" xmlns="http://www.w3.org/2000/svg" version="1.1" xmlns:xlink="http://www.w3.org/1999/xlink" xmlns:svgjs="http://svgjs.com/svgjs"><defs id="SvgjsDefs1002"></defs><g id="SvgjsG1008" transform="matrix(1,0,0,1,0,0)"><svg xmlns="http://www.w3.org/2000/svg" width="288" height="288" version="1.0" viewBox="0 0 230 220"><g transform="matrix(.1 0 0 -.1 0 220)" fill="#04400b" class="color000 svgShape"><path d="M0 1100 l0 -1100 1150 0 1150 0 0 1100 0 1100 -1150 0 -1150 0 0-1100z m1354 1040 c101 -24 166 -48 166 -61 0 -5 7 -5 17 -2 12 5 14 3 8 -7
-6 -10 -4 -12 9 -7 9 4 15 3 12 -1 -6 -10 64 -47 83 -43 7 1 10 -2 7 -8 -7
-11 36 -44 51 -39 5 2 23 -12 40 -30 16 -18 39 -35 49 -37 10 -1 18 -8 16 -14
-1 -6 7 -11 19 -11 11 0 17 -4 14 -10 -3 -5 -1 -10 5 -10 6 0 9 -4 6 -9 -3 -5
1 -14 9 -21 13 -11 14 -10 8 6 -6 17 -5 17 10 5 9 -7 15 -17 12 -21 -2 -4 4
-16 14 -26 9 -11 15 -26 13 -34 -4 -13 -3 -13 10 -2 11 9 18 10 23 2 3 -5 1
-10 -4 -10 -6 0 -11 -5 -11 -11 0 -6 7 -8 16 -5 8 3 12 2 9 -4 -3 -6 -2 -10 3
-10 4 0 14 -15 22 -34 7 -20 18 -32 25 -30 8 3 13 -4 12 -19 0 -28 31 -79 44
-71 9 5 13 -21 9 -64 -1 -13 6 -25 15 -28 12 -5 15 -14 10 -33 -3 -16 -2 -21
3 -13 13 19 30 -22 42 -98 6 -36 12 -76 15 -90 11 -62 14 -251 4 -244 -8 4 -9
-3 -5 -23 12 -51 -31 -198 -95 -329 -140 -287 -409 -497 -717 -559 -46 -9
-100 -14 -120 -11 -27 4 -31 3 -17 -4 18 -8 17 -9 -7 -9 -15 -1 -30 4 -33 9
-3 6 -36 10 -73 10 -72 1 -113 8 -207 35 -33 10 -70 18 -81 19 -14 1 -20 6
-16 15 3 9 1 12 -7 7 -13 -9 -162 60 -174 81 -4 7 -15 13 -23 13 -8 0 -17 7
-20 15 -4 8 -14 15 -24 15 -9 0 -25 10 -36 21 -10 12 -30 25 -43 30 -13 5 -22
12 -19 15 3 2 -28 38 -68 79 -41 42 -74 80 -74 85 0 6 -4 10 -9 10 -5 0 -14
13 -19 29 -6 16 -20 39 -32 51 -12 12 -19 28 -16 36 3 8 2 13 -2 10 -12 -7
-67 120 -92 214 -7 25 -16 56 -21 70 -5 14 -11 49 -14 79 -2 30 -10 70 -16 89
-13 39 -6 173 12 251 103 433 460 756 898 811 99 13 255 4 355 -20z" fill="#04400b" class="color000 svgShape"></path><path d="M1310 2040 c0 -5 -10 -14 -21 -21 -17 -8 -20 -8 -14 1 5 9 1 10 -14
5 -12 -4 -21 -2 -21 4 0 6 -5 11 -11 11 -5 0 -7 -4 -4 -10 3 -5 1 -10 -4 -10
-6 0 -11 4 -11 9 0 4 -12 6 -27 3 l-28 -6 25 -7 c19 -6 15 -7 -20 -7 -64 1
-172 -12 -190 -23 -10 -6 4 -8 42 -7 40 1 61 -4 72 -15 22 -21 20 -63 -3 -79
-17 -12 -17 -16 -5 -33 13 -17 16 -18 25 -5 9 12 10 12 5 -3 -3 -10 -1 -27 4
-38 10 -17 7 -19 -24 -19 -25 0 -36 5 -41 19 -3 10 -14 26 -25 36 -19 18 -20
17 -20 -11 0 -23 2 -26 11 -14 8 12 10 12 7 -5 -2 -13 -12 -21 -31 -23 -29 -4
-38 -22 -10 -22 9 0 14 -3 10 -6 -3 -3 -15 -3 -26 1 -18 5 -21 15 -23 63 -1
52 -2 53 -5 13 -4 -36 -7 -42 -23 -38 -14 4 -20 -2 -25 -23 -4 -19 -18 -33
-45 -46 -22 -11 -40 -24 -40 -31 0 -7 -11 -24 -25 -39 -13 -14 -22 -30 -19
-35 9 -15 -27 -23 -38 -8 -8 11 -8 10 -4 -5 9 -26 -2 -56 -20 -56 -8 0 -20
-11 -26 -25 -6 -14 -18 -25 -25 -25 -8 0 -12 -4 -8 -9 3 -5 2 -12 -3 -15 -12
-7 -11 28 1 35 5 4 6 12 2 19 -6 10 -11 9 -22 -5 -7 -11 -13 -13 -13 -6 0 7
-4 9 -10 6 -18 -11 -11 -35 8 -29 16 5 16 5 0 -6 -12 -7 -18 -24 -18 -50 0
-21 -5 -63 -11 -92 -17 -81 -89 -228 -111 -228 -2 0 -3 51 -3 114 0 94 3 117
17 133 20 21 24 38 8 28 -5 -3 -10 4 -11 17 -1 13 -7 1 -14 -27 -14 -55 -46
-123 -57 -124 -5 -1 -8 -3 -8 -6 0 -3 0 -11 0 -17 0 -7 10 2 21 20 12 17 23
32 25 32 2 0 4 -30 4 -66 0 -44 -4 -63 -11 -59 -7 5 -7 1 1 -11 14 -25 49
-195 43 -211 -3 -7 -2 -25 2 -40 5 -22 8 -24 15 -13 5 9 1 52 -10 104 -18 88
-18 89 3 125 12 20 25 39 29 42 5 3 12 19 17 35 7 28 9 26 25 -31 35 -118 41
-209 21 -305 -5 -22 -4 -22 4 -5 l10 20 1 -20 c1 -16 4 -14 14 10 12 27 14 28
21 10 3 -11 18 -47 31 -80 22 -54 57 -224 48 -234 -1 -2 -16 6 -32 18 -17 12
-35 21 -40 21 -11 0 -39 114 -46 185 -2 22 -2 9 0 -30 1 -38 6 -81 9 -95 4
-14 -5 -1 -19 29 -22 46 -25 59 -16 84 15 44 11 68 -5 27 -13 -33 -14 -27 -16
90 l-3 125 -5 -94 c-4 -62 -10 -96 -18 -99 -7 -2 -13 1 -13 6 0 5 -10 22 -22
37 -12 16 -22 36 -23 45 -2 27 -27 111 -32 106 -2 -2 3 -28 11 -57 9 -29 14
-54 12 -56 -2 -2 -25 22 -50 54 -26 32 -55 68 -66 81 -16 19 -19 39 -19 127 0
58 -3 115 -6 125 -9 28 2 25 34 -11 41 -44 47 -16 15 69 -41 108 -41 104 15
186 28 42 51 80 51 86 0 6 4 9 9 6 5 -4 15 -38 22 -76 7 -40 19 -76 28 -83 14
-10 14 -10 4 4 -10 12 -7 25 13 64 13 27 34 75 46 107 17 48 33 69 99 127 54
48 94 74 131 87 29 9 66 25 83 36 28 17 64 27 38 10 -8 -5 -9 -12 -2 -22 8
-11 12 -12 16 -2 2 6 11 12 18 12 7 0 15 10 19 23 7 25 8 67 2 67 -2 0 -35
-10 -72 -21 -326 -101 -571 -378 -625 -708 -6 -36 -17 -101 -25 -144 -16 -89
-17 -163 -3 -227 5 -25 12 -62 16 -82 3 -21 9 -38 13 -38 4 0 7 -6 7 -12 0
-15 42 -110 52 -118 3 -3 13 -18 21 -35 19 -39 66 -95 74 -88 3 4 6 0 6 -8 2
-53 255 -239 326 -239 8 0 40 -8 71 -19 32 -10 78 -19 103 -20 24 -1 48 -7 52
-14 5 -8 8 -8 8 -1 0 8 13 9 38 4 21 -3 92 -3 157 1 243 16 441 103 598 263
119 120 197 256 237 411 11 44 24 89 29 100 36 79 38 339 5 440 -20 61 -87
202 -111 233 -104 136 -272 285 -320 285 -7 0 -13 4 -13 8 0 14 -155 69 -177
63 -16 -4 -25 -1 -29 10 -7 17 -74 23 -74 6z m-29 -79 l23 -18 -23 -12 c-19
-10 -26 -10 -40 3 -22 20 -31 20 -47 -1 -20 -27 -17 -77 5 -97 21 -19 41 -14
41 11 0 10 -6 13 -16 9 -11 -4 -15 -1 -12 14 2 12 6 21 11 20 4 0 23 0 42 0
34 0 35 -1 35 -38 0 -45 -25 -62 -90 -62 -48 0 -76 24 -86 75 -7 38 11 95 30
95 6 0 4 5 -4 10 -11 7 3 10 46 10 46 0 68 -5 85 -19z m213 -138 c44 -25 86
-52 93 -59 7 -7 17 -14 22 -16 5 -1 25 -29 44 -60 19 -32 37 -54 41 -50 4 3 4
-1 1 -10 -4 -9 -2 -25 5 -35 10 -16 10 -15 6 7 -4 17 -1 14 10 -10 22 -47 28
-110 10 -110 -27 0 -83 48 -134 115 -45 59 -158 220 -185 262 -13 21 2 15 87
-34z m287 -190 c-12 -20 -14 -14 -5 12 4 9 9 14 11 11 3 -2 0 -13 -6 -23z m70
-112 c34 -79 35 -106 9 -190 -12 -36 -18 -71 -15 -78 2 -8 1 -12 -4 -9 -9 6
-24 147 -22 211 1 22 -3 54 -8 70 -10 33 -8 -54 3 -181 l7 -69 -21 38 c-41 75
-45 157 -14 296 l5 24 16 -23 c9 -12 29 -52 44 -89z m-648 19 c4 -38 3 -47 -3
-30 -8 23 -9 23 -7 -7 1 -18 -3 -32 -8 -32 -10 0 -11 17 -2 59 3 14 6 36 6 49
1 39 8 21 14 -39z m-110 -96 c-12 -9 -14 -13 -5 -14 9 0 11 -7 7 -21 -4 -12
-8 -27 -9 -33 -1 -6 -5 -17 -9 -23 -5 -7 -5 -18 -2 -23 10 -16 -24 -24 -49
-12 -17 7 -35 6 -73 -7 l-51 -17 30 -13 c19 -9 26 -16 18 -21 -9 -5 60 -7 79
-1 2 1 -7 9 -20 20 -13 10 -30 17 -39 14 -8 -2 -4 2 9 10 19 11 31 12 48 4 23
-10 31 -27 13 -27 -5 0 -9 -3 -8 -7 2 -12 -21 -63 -28 -63 -3 0 -4 7 0 15 3 8
1 15 -4 15 -9 0 -13 -13 -7 -26 1 -3 -10 -12 -26 -20 -52 -28 -109 21 -99 86
2 16 8 27 13 24 5 -3 9 2 9 11 0 9 -4 13 -10 10 -7 -4 -7 3 0 20 12 30 -5 65
-32 65 -18 0 -48 26 -48 41 0 6 19 9 43 7 39 -3 42 -5 42 -30 -1 -31 9 -37 19
-12 3 8 11 12 17 8 7 -4 9 -3 6 3 -8 12 47 25 78 18 11 -2 26 -4 33 -4 7 -1
10 -6 6 -12 -5 -8 -1 -8 14 0 27 15 30 21 21 51 l-7 25 -1 -27 c-1 -18 -6 -28
-17 -28 -10 0 -14 6 -10 18 17 62 18 65 26 51 6 -9 11 -4 15 17 13 60 20 57
23 -10 2 -56 0 -70 -15 -82z m-79 100 c2 -16 7 -41 11 -56 6 -23 4 -28 -11
-28 -9 0 -14 3 -11 7 4 3 3 11 -2 17 -6 6 -7 31 -4 54 6 47 12 49 17 6z m-55
-24 c4 0 13 -11 19 -24 9 -20 8 -25 -4 -30 -11 -4 -14 -1 -9 13 3 11 1 22 -5
26 -6 4 -10 -6 -10 -24 0 -17 -5 -31 -11 -31 -6 0 -8 7 -5 16 3 9 7 34 7 57 1
23 4 32 6 20 2 -13 8 -23 12 -23z m303 -22 c2 -21 0 -38 -4 -38 -4 0 -7 24 -7
53 1 54 5 49 11 -15z m-109 -5 c5 -26 2 -35 -14 -44 -19 -10 -20 -9 -13 13 4
12 7 36 6 52 -1 36 13 22 21 -21z m80 12 c-3 -9 -8 -14 -10 -11 -3 3 -2 9 2
15 9 16 15 13 8 -4z m525 -10 c-3 -3 -9 2 -12 12 -6 14 -5 15 5 6 7 -7 10 -15
7 -18z m-100 4 c-3 -11 18 -17 69 -22 18 -2 22 -9 25 -45 l3 -42 -42 47 c-29
33 -43 42 -43 31 0 -10 14 -27 30 -40 41 -30 78 -112 75 -163 -1 -22 -3 -65
-5 -95 -1 -30 -4 -47 -7 -37 -2 9 -9 15 -14 11 -6 -3 -7 4 -4 18 3 13 1 37 -5
53 -6 17 -15 48 -20 70 -16 73 -39 140 -39 118 -1 -12 5 -42 13 -65 31 -100
49 -168 44 -173 -7 -7 -68 131 -77 170 -3 17 -6 56 -6 88 0 31 -3 57 -7 57 -5
0 -8 7 -8 15 0 8 5 15 10 15 6 0 9 -5 8 -11z m-1061 -31 c-3 -8 -6 -5 -6 6 -1
11 2 17 5 13 3 -3 4 -12 1 -19z m277 16 c29 -11 17 -20 -20 -16 -25 3 -32 7
-23 13 17 10 23 11 43 3z m495 2 c-12 -10 -60 -16 -54 -6 3 5 18 10 32 10 15
0 24 -2 22 -4z m26 -26 c8 -12 -33 -52 -48 -47 -7 2 -11 11 -11 20 1 9 -2 15
-6 12 -10 -6 -7 -45 4 -63 4 -7 2 -12 -3 -12 -6 0 -11 4 -11 10 0 5 -8 7 -17
4 -17 -5 -17 -5 0 6 12 8 15 18 11 35 -4 15 0 26 10 32 22 12 64 14 71 3z
m-765 -9 c0 -6 -4 -13 -10 -16 -5 -3 -10 1 -10 9 0 9 5 16 10 16 6 0 10 -4 10
-9z m290 -1 c0 -5 -4 -10 -10 -10 -5 0 -10 5 -10 10 0 6 5 10 10 10 6 0 10 -4
10 -10z m332 -4 c19 -8 40 -22 48 -30 16 -21 -3 -21 -24 -1 -23 24 -27 18 -8
-15 9 -16 26 -34 37 -40 15 -8 15 -9 2 -6 -15 5 -16 2 -7 -14 16 -30 12 -33
-32 -25 -55 9 -87 9 -115 0 -32 -10 -45 27 -26 73 8 19 9 31 4 27 -6 -3 -11
-13 -11 -22 0 -9 -3 -14 -6 -10 -12 12 8 48 24 45 10 -2 22 3 28 11 10 13 14
13 28 2 13 -11 19 -12 29 -2 9 10 8 11 -7 5 -13 -5 -17 -4 -12 4 9 15 7 15 48
-2z m-655 -38 c-3 -7 -5 -2 -5 12 0 14 2 19 5 13 2 -7 2 -19 0 -25z m794 -38
c-13 -11 -31 -20 -39 -20 -9 0 -1 9 18 19 45 25 51 25 21 1z m-565 0 c19 -7
30 -7 40 1 10 8 14 8 14 0 0 -6 -4 -11 -10 -11 -5 0 -10 -9 -10 -19 0 -11 -5
-23 -10 -26 -11 -7 -44 14 -35 23 2 3 11 -1 20 -8 10 -8 15 -9 15 -1 0 6 -5
11 -11 11 -5 0 -7 4 -4 10 3 5 0 7 -8 4 -8 -3 -20 2 -27 11 -15 18 -11 19 26
5z m564 -23 c0 -2 -8 -12 -19 -21 -16 -15 -19 -15 -24 -2 -4 10 -1 13 7 10 8
-3 17 -1 21 5 6 11 15 15 15 8z m-271 -48 c36 -48 43 -84 21 -107 -18 -19 -18
-20 3 -26 11 -3 19 -7 16 -10 -2 -3 -25 2 -50 10 -65 22 -74 46 -42 112 13 29
26 52 27 52 1 0 13 -14 25 -31z m88 6 c0 -11 -4 -12 -14 -4 -10 9 -13 7 -13
-7 0 -14 -3 -15 -12 -6 -10 10 -10 15 2 22 22 14 37 12 37 -5z m33 -5 c0 -5
-4 -10 -10 -10 -5 0 -10 5 -10 10 0 6 5 10 10 10 6 0 10 -4 10 -10z m150 -9
c0 -6 -9 -9 -20 -8 -11 1 -20 5 -20 9 0 4 9 8 20 8 11 0 20 -4 20 -9z m517
-81 c-9 -125 -23 -179 -59 -225 -17 -22 -35 -45 -40 -52 -18 -24 13 -23 37 1
14 14 25 22 25 18 0 -4 8 2 17 13 15 19 15 19 9 -13 -3 -18 -25 -77 -48 -132
l-43 -98 -77 -41 c-43 -22 -78 -37 -78 -33 0 5 37 53 83 108 107 129 110 134
105 134 -3 0 -40 -43 -83 -95 -43 -52 -80 -93 -83 -91 -8 8 68 139 100 172 21
23 26 33 16 36 -10 4 -7 23 15 88 15 45 26 84 24 86 -4 5 -56 -143 -60 -173
-2 -12 -6 -26 -10 -29 -10 -10 -8 51 3 106 5 26 4 47 -1 51 -5 3 -16 29 -25
58 -8 29 -17 51 -20 49 -2 -3 3 -27 11 -54 19 -63 19 -130 0 -184 -8 -23 -15
-50 -14 -59 0 -9 5 -1 11 18 7 25 12 31 18 21 10 -17 -18 -76 -30 -64 -5 5
-13 77 -19 159 l-9 150 5 -184 c4 -133 2 -182 -6 -177 -6 4 -11 15 -12 24 0
10 -3 12 -5 5 -3 -7 0 -21 6 -32 8 -16 7 -28 -4 -50 -8 -15 -12 -31 -9 -35 4
-3 2 -6 -4 -6 -6 0 -13 -10 -16 -22 -4 -12 -9 -19 -12 -16 -4 3 -2 15 4 26 6
12 10 58 10 104 -1 95 -6 87 -12 -22 -3 -41 -8 -85 -12 -97 -7 -22 -5 -23 36
-19 71 5 133 18 148 30 12 9 12 7 2 -13 -17 -31 -118 -141 -125 -134 -2 3 -2
-4 1 -15 4 -17 -1 -20 -35 -24 -22 -2 -38 0 -36 4 6 10 9 10 -56 -7 -30 -8
-64 -15 -75 -14 -17 0 -16 2 8 15 41 22 33 27 -10 6 -21 -11 -44 -17 -51 -15
-8 3 -10 -1 -5 -13 5 -13 3 -15 -7 -9 -8 5 -11 4 -7 -3 7 -11 47 -5 47 8 0 4
21 0 47 -8 l47 -16 -29 -8 c-35 -10 -143 -28 -200 -34 -35 -4 -37 -3 -20 7 10
7 37 18 60 25 22 7 32 13 21 13 -16 1 -16 3 5 21 13 12 -5 3 -39 -19 -35 -22
-73 -43 -83 -46 -19 -6 -17 -25 2 -25 6 0 7 4 4 10 -7 11 2 12 27 2 13 -5 -2
-15 -53 -36 -48 -20 -66 -32 -57 -37 18 -12 30 -11 23 1 -3 5 0 8 7 5 14 -6
18 -55 5 -55 -19 0 -67 32 -62 40 7 11 -42 3 -99 -17 -51 -17 -56 -17 -56 6 0
15 7 19 29 19 30 -1 95 33 226 118 132 85 191 161 224 286 l19 73 7 -46 c9
-59 -8 -120 -52 -187 -29 -43 -33 -56 -23 -65 10 -10 11 -9 5 3 -5 8 -5 12 0
8 4 -4 33 14 65 40 31 26 66 53 76 60 10 7 2 4 -18 -7 l-37 -20 -4 22 c-3 17
-5 15 -6 -8 -2 -20 -13 -39 -37 -58 -43 -36 -43 -26 1 43 19 30 35 63 35 75 0
17 2 18 11 5 8 -11 9 -5 5 24 -3 21 -2 36 1 32 4 -4 13 10 19 31 19 59 65 171
59 143 -3 -14 -12 -54 -20 -90 -8 -36 -19 -80 -24 -97 -5 -18 -6 -33 -1 -33 4
0 10 12 13 28 34 170 42 196 57 187 12 -7 25 16 14 24 -22 16 -12 132 23 264
15 56 33 76 33 38 0 -11 5 -23 11 -27 6 -3 22 -29 34 -57 l24 -50 6 39 c7 38
38 95 79 143 13 15 15 21 6 17 -8 -4 -2 4 13 18 15 14 31 26 34 26 3 0 3 -40
0 -90z m-1057 56 c0 -28 -30 -43 -56 -28 -14 8 -11 11 17 22 l34 13 -35 7 -35
7 38 2 c33 1 37 -2 37 -23z m402 2 c-9 -9 -15 -9 -24 1 -11 10 -10 11 5 6 10
-5 17 -2 17 6 0 7 3 9 7 6 4 -4 1 -13 -5 -19z m567 -58 c-4 -8 -15 -24 -24
-35 -16 -19 -16 -19 -11 14 3 18 6 50 6 70 l0 36 18 -35 c10 -20 15 -41 11
-50z m-424 50 c18 -7 19 -8 3 -15 -21 -8 -48 0 -48 15 0 12 17 12 45 0z m-537
-45 c-2 -1 -21 -5 -43 -8 l-40 -6 30 13 c16 8 35 11 43 9 7 -3 12 -7 10 -8z
m542 5 c12 -8 11 -10 -7 -10 -12 0 -25 5 -28 10 -8 13 15 13 35 0z m-158 -65
c6 -32 -14 -33 -61 -4 -32 19 -32 21 -16 39 16 17 20 18 45 5 16 -8 30 -25 32
-40z m129 38 c13 -15 12 -15 -8 -4 -24 12 -29 21 -14 21 5 0 15 -7 22 -17z
m-525 -8 c-26 -19 -42 -19 -26 0 7 8 20 15 29 15 13 -1 13 -3 -3 -15z m193 -3
c8 -16 4 -22 -28 -40 -49 -28 -56 -27 -59 2 -1 18 6 28 31 40 41 20 44 20 56
-2z m313 -32 c6 0 8 -3 5 -7 -10 -9 -58 38 -50 50 3 5 12 -2 20 -17 7 -14 19
-26 25 -26z m-464 12 c-11 -13 -10 -14 15 -8 15 3 27 2 27 -3 0 -5 -11 -11
-25 -13 -14 -3 -25 -1 -25 5 0 7 -4 7 -12 -1 -7 -7 -17 -12 -22 -12 -6 0 -4 6
5 13 8 7 18 20 22 30 4 10 12 15 17 12 8 -5 7 -12 -2 -23z m202 -10 c0 -9 -61
-34 -68 -28 -4 5 48 35 61 36 4 0 7 -4 7 -8z m225 -2 c4 -7 -2 -9 -18 -4 -23
5 -25 3 -20 -18 5 -18 3 -21 -7 -11 -7 6 -10 19 -7 27 7 18 42 22 52 6z m-95
-36 l25 -13 -32 2 c-17 1 -29 5 -27 9 3 4 -2 5 -11 2 -8 -3 -27 -3 -43 1 -25
7 -25 8 -7 15 23 9 59 3 95 -16z m-280 6 c0 -5 -18 -10 -41 -10 -22 0 -38 4
-35 8 7 12 76 14 76 2z m135 -6 c-19 -15 -18 -15 16 -9 20 4 39 3 42 -2 3 -4
2 -29 -3 -55 -4 -27 -4 -48 1 -48 11 0 20 46 13 67 -5 15 -4 15 5 3 9 -12 11
-11 11 10 0 16 3 21 10 14 7 -7 5 -21 -6 -43 -9 -17 -13 -38 -10 -46 4 -11 -2
-15 -18 -15 -13 0 -38 -3 -55 -6 -27 -6 -31 -4 -31 15 0 12 -9 39 -20 60 -19
37 -19 39 -1 34 13 -3 17 -11 14 -26 -3 -15 -2 -18 4 -10 6 9 9 1 10 -23 1
-36 8 -52 19 -42 3 4 -1 32 -9 62 -13 51 -12 58 2 66 25 15 28 11 6 -6z m258
9 c3 -5 -5 -8 -18 -8 -13 0 -21 3 -18 8 2 4 10 7 18 7 8 0 16 -3 18 -7z m27
-32 c0 -5 -9 -11 -20 -14 -20 -5 -26 3 -13 16 9 10 33 8 33 -2z m-154 -42 c-6
-38 -26 -63 -39 -50 -11 11 22 93 35 85 5 -3 7 -19 4 -35z m-181 -6 c16 -37
10 -58 -13 -45 -19 12 -24 82 -5 82 1 0 10 -17 18 -37z m282 11 c0 -17 -9 -18
-25 -2 -17 17 -15 27 6 21 10 -2 19 -11 19 -19z m-377 -4 c0 -5 -9 -11 -19
-15 -11 -3 -18 -12 -15 -18 2 -7 -9 -18 -26 -24 -35 -13 -39 -4 -10 22 12 10
19 24 17 29 -3 6 8 12 24 13 16 1 29 -2 29 -7z m19 -18 c-2 -15 0 -32 3 -37 4
-6 -5 -20 -18 -32 -13 -12 -24 -18 -24 -13 0 4 7 13 15 20 9 7 13 20 10 27 -5
15 4 63 12 63 2 0 3 -12 2 -28z m331 -10 c-5 -2 -8 -8 -5 -13 4 -5 -1 -6 -10
-2 -13 5 -14 7 -3 14 10 7 10 9 1 9 -7 0 -13 7 -13 15 0 12 3 12 20 -3 11 -9
16 -18 10 -20z m60 28 c0 -5 -2 -10 -4 -10 -3 0 -8 5 -11 10 -3 6 -1 10 4 10
6 0 11 -4 11 -10z m74 2 c3 -5 -1 -9 -9 -9 -8 0 -12 4 -9 9 3 4 7 8 9 8 2 0 6
-4 9 -8z m-431 -37 c4 -8 3 -16 -1 -19 -4 -3 -9 4 -9 15 -2 23 3 25 10 4z
m272 -73 c-2 -2 -13 1 -24 8 -25 13 -41 6 -41 -19 0 -11 -8 -38 -19 -61 -15
-33 -19 -38 -24 -21 -2 11 4 33 14 50 11 18 19 38 19 46 0 8 12 20 28 27 24
13 28 12 39 -6 6 -12 10 -22 8 -24z m-97 14 c-1 -14 -5 -24 -8 -24 -29 3 -51
-4 -47 -14 2 -7 14 -12 25 -10 12 2 22 -2 22 -8 0 -6 -4 -8 -10 -5 -5 3 -10
-3 -10 -14 0 -27 -20 -69 -35 -75 -15 -5 -30 57 -19 76 5 8 2 9 -9 5 -10 -3
-17 -2 -17 3 0 6 9 10 20 10 11 0 20 5 20 10 0 6 -7 10 -15 10 -9 0 -19 10
-24 23 -7 19 -5 23 23 28 17 4 43 7 58 8 24 1 27 -3 26 -23z m-703 -76 c41
-42 106 -165 98 -185 -3 -8 -1 -15 3 -15 5 0 15 -13 22 -30 8 -18 34 -41 68
-60 30 -18 62 -39 71 -48 16 -16 16 -16 11 0 -4 9 -10 34 -13 55 l-7 38 22
-40 c13 -22 31 -52 41 -67 27 -38 23 -45 -8 -17 -27 23 -26 22 2 -9 16 -18 34
-31 40 -28 7 2 12 -2 12 -9 0 -11 -5 -11 -28 1 -32 16 -43 18 -35 5 7 -11 -61
5 -150 36 -59 20 -80 34 -134 88 -35 35 -62 66 -59 68 2 3 33 -2 68 -9 35 -7
67 -11 72 -9 4 3 10 0 12 -5 3 -6 4 -5 3 2 -1 7 -20 21 -42 31 -64 30 -134 81
-134 98 0 8 -16 56 -35 105 -19 49 -35 90 -35 92 0 11 106 -59 135 -88z m535
79 c0 -5 5 -7 10 -4 6 3 13 -2 16 -12 3 -10 14 -34 24 -53 9 -19 15 -41 12
-49 -6 -18 -41 55 -42 89 l-1 25 -10 -23 c-5 -13 -14 -20 -19 -17 -8 5 -7 11
1 21 14 17 -2 19 -19 2 -9 -9 -12 -8 -12 4 0 15 12 25 33 27 4 1 7 -4 7 -10z
m240 -31 c0 -13 -23 -5 -28 10 -2 7 2 10 12 6 9 -3 16 -11 16 -16z m-485 -218
c32 -132 108 -221 274 -319 62 -37 87 -57 79 -63 -21 -13 -47 -9 -112 14 l-61
23 35 5 35 6 -55 28 c-30 16 -71 41 -91 57 -20 16 -40 25 -45 21 -5 -4 -6 -3
-2 2 4 5 -6 28 -23 52 -46 67 -59 107 -59 179 0 36 2 65 4 65 2 0 12 -32 21
-70z m329 -91 c14 -7 27 -17 30 -25 8 -20 -25 -26 -46 -7 -15 13 -23 15 -36 7
-46 -29 -39 -116 11 -122 19 -2 27 1 27 12 0 9 -7 16 -15 16 -8 0 -15 9 -15
20 0 17 7 20 40 20 40 0 40 0 40 -40 0 -46 -18 -60 -77 -60 -50 0 -81 22 -89
64 -16 90 52 150 130 115z m143 -46 l28 -48 3 48 c3 41 6 47 25 47 21 0 22 -4
21 -78 -2 -107 -1 -104 -26 -100 -15 2 -31 18 -46 46 -13 23 -28 42 -33 42 -5
0 -9 -20 -9 -45 0 -38 -3 -45 -20 -45 -19 0 -20 7 -20 90 0 89 0 90 25 90 18
0 31 -11 52 -47z m-372 -123 c16 -17 16 -20 3 -15 -9 4 -19 13 -22 21 -7 19
-2 18 19 -6z m5 -20 c19 -8 53 -22 75 -32 l40 -19 -40 8 c-22 4 -53 7 -70 8
-16 1 -37 5 -45 8 -15 7 -77 15 -118 16 -28 1 -19 21 9 21 11 0 18 4 15 8 -6
11 91 -3 134 -18z" fill="#04400b" class="color000 svgShape"></path><path d="M1495 1785c31-51 50-74 58-75 5 0-6 19-24 43-43 56-57 69-34 32zM1567 1690c15-21 84-114 90-120 22-21-35 64-63 95-20 22-32 33-27 25zM1680 1535c14-16 26-32 28-34 1-2 4-2 7 1 3 2-10 18-28 34l-32 29 25-30zM1067 1416c-4-10-1-13 8-9 8 3 12 9 9 14-7 12-11 11-17-5zM915 1389c-4-6-5-12-2-15 2-3 7 2 10 11 7 17 1 20-8 4zM1005 1290c3-5 11-10 16-10 6 0 7 5 4 10-3 6-11 10-16 10-6 0-7-4-4-10zM900 1228c0-5-6-6-12-3-7 4-5 0 5-9 11-8 26-12 35-9 11 5 13 3 7-7-5-9-4-11 3-6 9 5 9 12 0 25-11 18-38 25-38 9zM955 1231c-6-11 9-23 19-14 9 9 7 23-3 23-6 0-12-4-16-9zM1841 1149c-7-22-11-43-8-45 2-2 9 14 16 37 7 22 11 43 8 45-2 2-9-14-16-37zM1651 834c0-11 3-14 6-6 3 7 2 16-1 19-3 4-6-2-5-13zM1605 610c-3-5-1-10 4-10 6 0 11 5 11 10 0 6-2 10-4 10-3 0-8-4-11-10zM1600 549c-47-28-77-49-67-45 38 13 175 98 155 96-2 0-41-23-88-51zM467 795c21-27 49-61 62-75l24-25-21 30c-12 17-40 50-62 75l-42 45 39-50zM530 606c0-12 210-130 217-122 3 3-19 17-49 32-29 15-77 42-106 60-51 33-62 38-62 30zM1003 1925c0-8 9-15 19-15 10 0 18 7 18 15 0 8-8 15-18 15-10 0-19-7-19-15zM855 1888c-24-14-31-23-94-116-32-46-48-79-44-89 5-12 10-5 18 23 6 21 17 38 23 37 7-2 12 7 12 18 0 18 2 19 15 9 9-8 15-8 15-2 0 6-6 13-12 15-9 4-5 13 12 30 14 13 30 32 36 43 7 10 19 18 28 18 9-1 16 4 16 12 0 17 0 17-25 2z" fill="#04400b" class="color000 svgShape"></path><path d="M846 1845c-3-9-6-24-5-33 0-9 5-4 10 12 9 32 6 48-5 21zM780 1735c-11-13-10-14 4-9 9 3 16 10 16 15 0 13-6 11-20-6zM682 1659c-7-10-12-26-12-34 0-8-7-15-15-15-8 0-15-4-15-10 0-5 7-7 15-4 9 4 15 0 15-10 0-17-36-23-42-6-2 6-8 2-15-8-11-19-13-19 42-13 6 1 19 8 29 16 16 12 17 17 5 31-11 14-11 19 7 33 16 13 18 19 9 28-9 8-15 6-23-8zM411 1484c0-11 3-14 6-6 3 7 2 16-1 19-3 4-6-2-5-13zM529 1463c-13-16-12-17 4-4 9 7 17 15 17 17 0 8-8 3-21-13zM516 1335c-3-9-6-22-5-28 0-7 5-1 10 12 5 13 8 26 5 28-2 2-6-3-10-12zM501 1274c0-11 3-14 6-6 3 7 2 16-1 19-3 4-6-2-5-13zM476 1195c-3-9-6-22-5-28 0-7 5-1 10 12 5 13 8 26 5 28-2 2-6-3-10-12zM366 1177c3-10 9-15 12-12 3 3 0 11-7 18-10 9-11 8-5-6zM533 1080c0-25 2-35 4-22 2 12 2 32 0 45-2 12-4 2-4-23zM400 1075c0-5 5-17 10-25 5-8 10-10 10-5 0 6-5 17-10 25-5 8-10 11-10 5zM481 1054c0-11 3-14 6-6 3 7 2 16-1 19-3 4-6-2-5-13zM500 884c0-10 5-26 10-34 8-11 9-7 4 15-8 37-14 45-14 19zM624 810c12-60 39-160 43-157 4 5-37 180-44 187-3 3-2-11 1-30z" fill="#04400b" class="color000 svgShape"></path></g></svg></g></svg>